<svg width="1792" height="1662" xmlns="http://www.w3.org/2000/svg">

 <g>
  <title>background</title>
  <rect fill="none" id="canvas_background" height="1664" width="1794" y="-1" x="-1"/>
 </g>
 <g>
  <title>Layer 1</title>
  <path fill="#ffffff" id="svg_1" d="m326.25009,1472l0,-128q0,-26 -19,-45t-45,-19l-128,0q-26,0 -45,19t-19,45l0,128q0,26 19,45t45,19l128,0q26,0 45,-19t19,-45zm0,-384l0,-128q0,-26 -19,-45t-45,-19l-128,0q-26,0 -45,19t-19,45l0,128q0,26 19,45t45,19l128,0q26,0 45,-19t19,-45zm0,-384l0,-128q0,-26 -19,-45t-45,-19l-128,0q-26,0 -45,19t-19,45l0,128q0,26 19,45t45,19l128,0q26,0 45,-19t19,-45zm1024,768l0,-512q0,-26 -19,-45t-45,-19l-768,0q-26,0 -45,19t-19,45l0,512q0,26 19,45t45,19l768,0q26,0 45,-19t19,-45zm-1024,-1152l0,-128q0,-26 -19,-45t-45,-19l-128,0q-26,0 -45,19t-19,45l0,128q0,26 19,45t45,19l128,0q26,0 45,-19t19,-45zm1408,1152l0,-128q0,-26 -19,-45t-45,-19l-128,0q-26,0 -45,19t-19,45l0,128q0,26 19,45t45,19l128,0q26,0 45,-19t19,-45zm-384,-768l0,-512q0,-26 -19,-45t-45,-19l-768,0q-26,0 -45,19t-19,45l0,512q0,26 19,45t45,19l768,0q26,0 45,-19t19,-45zm384,384l0,-128q0,-26 -19,-45t-45,-19l-128,0q-26,0 -45,19t-19,45l0,128q0,26 19,45t45,19l128,0q26,0 45,-19t19,-45zm0,-384l0,-128q0,-26 -19,-45t-45,-19l-128,0q-26,0 -45,19t-19,45l0,128q0,26 19,45t45,19l128,0q26,0 45,-19t19,-45zm0,-384l0,-128q0,-26 -19,-45t-45,-19l-128,0q-26,0 -45,19t-19,45l0,128q0,26 19,45t45,19l128,0q26,0 45,-19t19,-45zm128,-160l0,1344q0,66 -47,113t-113,47l-1600,0q-66,0 -113,-47t-47,-113l0,-1344q0,-66 47,-113t113,-47l1600,0q66,0 113,47t47,113z"/>
 </g>
</svg>