<svg xmlns="http://www.w3.org/2000/svg" viewBox="0 0 395.85 120.99"><defs><style>.cls-1,.cls-2{fill:#fff;}.cls-1,.cls-3{fill-rule:evenodd;}.cls-3{fill:#f1cf17;}</style></defs><title>koloro logo white</title><g id="Слой_2" data-name="Слой 2"><g id="_1" data-name="1"><path class="cls-1" d="M53.87,108.15h7.42a4,4,0,0,1,2.85.92,3,3,0,0,1,1,2.27,2.83,2.83,0,0,1-.71,1.94,3.13,3.13,0,0,1-1.39.86,3.58,3.58,0,0,1,2,1.15,3.15,3.15,0,0,1,.65,2,3.53,3.53,0,0,1-.46,1.8A3.41,3.41,0,0,1,64,120.39a4.26,4.26,0,0,1-1.51.42,17.28,17.28,0,0,1-1.78.17H53.87V108.15Zm4,5h1.72a2,2,0,0,0,1.29-.32,1.15,1.15,0,0,0,.36-.92,1.1,1.1,0,0,0-.36-.87,1.94,1.94,0,0,0-1.26-.31H57.87v2.42Zm0,5.08h2a2.25,2.25,0,0,0,1.45-.37,1.25,1.25,0,0,0,.42-1,1.14,1.14,0,0,0-.42-.92,2.32,2.32,0,0,0-1.46-.35h-2Z"/><path class="cls-1" d="M79.71,121V108.15h6.6a9.43,9.43,0,0,1,2.81.32,3,3,0,0,1,1.57,1.17,3.64,3.64,0,0,1-1.11,5.18,4.83,4.83,0,0,1-1.39.51,4,4,0,0,1,1,.47,4.13,4.13,0,0,1,.63.67,5,5,0,0,1,.55.8L92.32,121H87.84l-2.11-3.92a3,3,0,0,0-.71-1,1.67,1.67,0,0,0-1-.3h-.35V121Zm4-7.63h1.65a5.67,5.67,0,0,0,1-.17,1,1,0,0,0,.64-.41,1.32,1.32,0,0,0-.14-1.7,2.32,2.32,0,0,0-1.46-.34H83.71Z"/><path class="cls-1" d="M115.24,118.86h-4.48l-.64,2.13h-4l4.78-12.84h4.37L120,121h-4.15l-.64-2.13Zm-.84-2.79h0l-1.4-4.61-1.4,4.61Z"/><polygon class="cls-1" points="135.09 108.15 138.8 108.15 143.64 115.26 143.64 108.15 147.38 108.15 147.38 120.99 143.64 120.99 138.83 113.91 138.83 120.99 135.09 120.99 135.09 108.15"/><path class="cls-1" d="M163.82,108.15h5.88a7,7,0,0,1,2.81.47,4.6,4.6,0,0,1,1.77,1.36,5.64,5.64,0,0,1,1,2.06,9.55,9.55,0,0,1,.32,2.49,8.68,8.68,0,0,1-.47,3.19,5.29,5.29,0,0,1-1.3,1.9,4.24,4.24,0,0,1-1.78,1,9.18,9.18,0,0,1-2.36.35h-5.88V108.15Zm4,2.91h0v7h1a4,4,0,0,0,1.76-.28,1.88,1.88,0,0,0,.82-1,6.12,6.12,0,0,0,.3-2.23,4.35,4.35,0,0,0-.66-2.79,2.78,2.78,0,0,0-2.19-.75Z"/><path class="cls-1" d="M207.37,108.14H213a6.74,6.74,0,0,1,2.7.45,4.38,4.38,0,0,1,1.7,1.3,5.39,5.39,0,0,1,1,2,9.19,9.19,0,0,1,.3,2.38,8.31,8.31,0,0,1-.45,3.06,5.07,5.07,0,0,1-1.24,1.82,4.06,4.06,0,0,1-1.71,1,8.73,8.73,0,0,1-2.26.33h-5.64V108.14Zm3.8,2.79h0v6.72h.92a3.91,3.91,0,0,0,1.68-.26,1.79,1.79,0,0,0,.79-.92,5.85,5.85,0,0,0,.28-2.13,4.18,4.18,0,0,0-.63-2.68,2.68,2.68,0,0,0-2.1-.72Z"/><polygon class="cls-1" points="233.26 108.14 243.43 108.14 243.43 110.78 237.06 110.78 237.06 112.72 242.96 112.72 242.96 115.24 237.06 115.24 237.06 117.66 243.62 117.66 243.62 120.45 233.26 120.45 233.26 108.14"/><path class="cls-1" d="M257.59,116.41l3.61-.23a2.73,2.73,0,0,0,.48,1.33,2,2,0,0,0,1.67.74,1.85,1.85,0,0,0,1.25-.38A1.16,1.16,0,0,0,265,117a1.13,1.13,0,0,0-.41-.86,4.76,4.76,0,0,0-1.93-.72,8.24,8.24,0,0,1-3.56-1.5,3,3,0,0,1-1.07-2.38,3.24,3.24,0,0,1,.54-1.79,3.64,3.64,0,0,1,1.65-1.33,7.61,7.61,0,0,1,3-.49,6.18,6.18,0,0,1,3.58.87,3.79,3.79,0,0,1,1.47,2.78l-3.58.21a1.66,1.66,0,0,0-1.85-1.57,1.5,1.5,0,0,0-1,.28.88.88,0,0,0-.33.69.7.7,0,0,0,.27.53,3.14,3.14,0,0,0,1.27.45,16.08,16.08,0,0,1,3.56,1.09,3.78,3.78,0,0,1,1.57,1.37,3.49,3.49,0,0,1,.49,1.83,3.91,3.91,0,0,1-.66,2.19,4,4,0,0,1-1.83,1.51,7.34,7.34,0,0,1-3,.52q-3.13,0-4.34-1.21A4.74,4.74,0,0,1,257.59,116.41Z"/><rect class="cls-2" x="282.72" y="108.14" width="3.8" height="12.31"/><path class="cls-1" d="M306.71,116v-2.54h5.88v5.27a12.14,12.14,0,0,1-3,1.57,10.14,10.14,0,0,1-3.08.42,7.5,7.5,0,0,1-3.57-.75,5.16,5.16,0,0,1-2.14-2.23,7.34,7.34,0,0,1-.76-3.4,7,7,0,0,1,.83-3.51,5.35,5.35,0,0,1,2.44-2.27,7.92,7.92,0,0,1,3.37-.6,9.38,9.38,0,0,1,3,.37,4,4,0,0,1,1.68,1.14,5.09,5.09,0,0,1,1,2l-3.68.66A2,2,0,0,0,308,111a2.4,2.4,0,0,0-1.38-.37,2.49,2.49,0,0,0-2,.87,4.18,4.18,0,0,0-.75,2.75,4.31,4.31,0,0,0,.75,2.86,2.64,2.64,0,0,0,2.1.86,3.88,3.88,0,0,0,1.22-.19,6.35,6.35,0,0,0,1.33-.64V116Z"/><polygon class="cls-1" points="322.52 108.14 326.07 108.14 330.72 114.96 330.72 108.14 334.3 108.14 334.3 120.45 330.72 120.45 326.1 113.67 326.1 120.45 322.52 120.45 322.52 108.14"/><path class="cls-1" d="M262.2,96V29.79h18.88q11.07,0,15.43,1A20,20,0,0,1,304,34.22a18,18,0,0,1,5.49,6.91,22.06,22.06,0,0,1,1.91,9.27c0,7.08-4.09,17.24-11.66,18.88L317.84,96H297.47L279.14,70.06V96Zm16.94-34.9h3.33q5.83,0,8.52-2t2.68-6.23q0-5-2.5-7.08c-1.68-1.4-4.47-2.1-8.42-2.1h-3.61Z"/><polygon class="cls-1" points="0 95.98 0 29.79 17.87 29.79 17.87 59.86 38.79 29.79 59.81 29.79 35.37 62.07 61.94 95.98 39.42 95.98 17.87 66.28 17.87 95.98 0 95.98"/><path class="cls-1" d="M130.24,63A33.68,33.68,0,0,1,120,87.57,36.31,36.31,0,0,1,108.4,95.1a36.09,36.09,0,0,1-27.1,0,34.75,34.75,0,0,1-11.4-7.53,33.63,33.63,0,0,1-7.76-11.22,33.91,33.91,0,0,1,7.76-37.88,34.82,34.82,0,0,1,11.4-7.53,36.28,36.28,0,0,1,27.17,0A35.24,35.24,0,0,1,120,38.47,33.82,33.82,0,0,1,130.24,63ZM94.87,82.47A15.9,15.9,0,0,0,107.28,77,20.23,20.23,0,0,0,112.18,63a20.09,20.09,0,0,0-5-13.89,16.58,16.58,0,0,0-24.75,0A20.2,20.2,0,0,0,77.56,63q0,8.49,4.83,14A15.88,15.88,0,0,0,94.87,82.47Z"/><polygon class="cls-1" points="140.05 95.98 140.05 29.79 158.1 29.79 158.1 80.52 178.93 80.52 178.93 95.98 140.05 95.98"/><path class="cls-1" d="M389.44,20.41A6.41,6.41,0,1,1,383,26.82a6.41,6.41,0,0,1,6.41-6.41Zm-1,42.62a33.75,33.75,0,0,0-6.16-19.74,6.42,6.42,0,0,1-8.39-8.4,36.19,36.19,0,0,0-34.38-3.95,34.81,34.81,0,0,0-11.4,7.53,34,34,0,0,0,0,49.1,34.73,34.73,0,0,0,11.4,7.53,36.08,36.08,0,0,0,27.09,0,36.29,36.29,0,0,0,11.57-7.53A33.69,33.69,0,0,0,388.43,63ZM353.06,82.47A15.89,15.89,0,0,1,340.58,77q-4.84-5.46-4.83-14a20.22,20.22,0,0,1,4.9-13.91,16.58,16.58,0,0,1,24.75,0,20.08,20.08,0,0,1,5,13.89A20.22,20.22,0,0,1,365.47,77,15.9,15.9,0,0,1,353.06,82.47Z"/><path class="cls-3" d="M252.25,63A33.69,33.69,0,0,1,242,87.57a36.32,36.32,0,0,1-11.57,7.53,36.09,36.09,0,0,1-27.1,0,34.76,34.76,0,0,1-11.4-7.53,33.65,33.65,0,0,1-7.76-11.22,33.92,33.92,0,0,1,7.76-37.88,34.83,34.83,0,0,1,11.4-7.53,36.28,36.28,0,0,1,27.17,0A35.2,35.2,0,0,1,242,38.47,33.83,33.83,0,0,1,252.25,63ZM216.89,82.47A15.91,15.91,0,0,0,229.29,77,20.23,20.23,0,0,0,234.2,63a20.08,20.08,0,0,0-5-13.89,16.58,16.58,0,0,0-24.75,0A20.21,20.21,0,0,0,199.57,63q0,8.49,4.83,14A15.88,15.88,0,0,0,216.89,82.47Z"/><path class="cls-3" d="M193.7,29c.44-.22.87-.42,1.3-.63a41.89,41.89,0,0,1,44.32.27l.75.36h0c1-9.33,2.15-18.77,3.09-28a3,3,0,1,0-2,5.68v.37c0,3.16-3.85,6.63-7.3,6.5-4.89-.19-6.52-4.69-7.35-7.68a3,3,0,1,0-2.09-.05c-2.4,7.92-12.44,8.66-15.06,0a3,3,0,1,0-2.09.05c-.83,3-2.46,7.5-7.35,7.68-3.46.13-7.26-3.34-7.31-6.5V6.69a3,3,0,1,0-2-5.68c.94,9.26,2,18.7,3.09,28Z"/></g></g></svg>