<svg width="29" height="32" xmlns="http://www.w3.org/2000/svg">

 <g>
  <title>background</title>
  <rect fill="none" id="canvas_background" height="34" width="31" y="-1" x="-1"/>
 </g>
 <g>
  <title>Layer 1</title>
  <g stroke="null" id="background">
   <rect stroke="null" x="0" y="0" id="svg_1" width="27.875028" height="31.875" fill="none"/>
  </g>
  <g id="music">
   <path fill="#ffffff" id="svg_2" d="m8.5,0l0,16.35c-0.627,-0.223 -1.298,-0.35 -2,-0.35c-3.316,0 -6,2.691 -6,6c0,3.314 2.684,6 6,6c3.311,0 6,-2.686 6,-6l0,-16l12,2l0,12.35c-0.627,-0.223 -1.297,-0.35 -2,-0.35c-3.316,0 -6,2.691 -6,6c0,3.314 2.684,6 6,6c3.309,0 6,-2.686 6,-6l0,-22l-20,-4z"/>
  </g>
 </g>
</svg>