<svg width="24" height="24" xmlns="http://www.w3.org/2000/svg">

 <g>
  <title>background</title>
  <rect fill="none" id="canvas_background" height="402" width="582" y="-1" x="-1"/>
 </g>
 <g>
  <title>Layer 1</title>
  <path id="svg_1" stroke-width="2" stroke-miterlimit="10" stroke="#ffffff" fill="none" d="m11.2,10.9l1.7,3.7c0.3,0.7 -0.2,1.4 -0.9,1.4l-7,0"/>
  <circle fill="#ffffff" stroke-width="0" stroke="#ffffff" id="svg_4" r="2" cy="3.968749" cx="17.968749"/>
  <path id="svg_2" stroke-width="2" stroke-miterlimit="10" stroke="#ffffff" fill="none" d="m6,5l4.1,-1.1c0.6,-0.2 1.2,0 1.7,0.3l3.9,2.9c0.4,0.3 0.7,0.7 0.8,1.2l0.2,1.1c0.2,0.9 1,1.6 2,1.6l3.3,0"/>
  <path fill="#ffffff" id="svg_3" d="m15.9,8.5l-3.6,2.9l0,4.3l-2.8,-3.9c-0.6,-0.8 -0.5,-2 0.3,-2.7l4.5,-3.8l1.7,1.2l-0.1,2z"/>
  <polygon fill="#ffffff" id="svg_5" points="7.9,22 11.8,18 9,18 6.2,20.9 "/>
  <g id="svg_6">
   <path fill="#ffffff" id="svg_7" d="m8.968749,7.8l1.1,-0.8l-8.1,0l0,1l6.7,0c0.1,-0.1 0.2,-0.1 0.3,-0.2z"/>
   <path fill="#ffffff" stroke-width="0" stroke="#ffffff" id="svg_8" d="m7.468749,11l-5.5,0l0,1l5.8,0c-0.2,-0.3 -0.2,-0.7 -0.3,-1z"/>
   <path fill="#ffffff" id="svg_9" d="m7.868749,9l-5.9,0l0,1l5.6,0c0,-0.4 0.2,-0.7 0.3,-1z"/>
  </g>
  <ellipse rx="0.015626" id="svg_12" cy="3.046499" cx="15.843911" fill-opacity="null" stroke-width="0" stroke="#ffffff" fill="null"/>
 </g>
</svg>